<svg id="svg" version="1.1" xmlns="http://www.w3.org/2000/svg" xmlns:xlink="http://www.w3.org/1999/xlink" width="400" height="400" viewBox="0, 0, 400,400"><g id="svgg"><path id="path0" d="M189.375 83.878 C 135.219 88.814,91.230 131.099,84.379 184.807 C 74.246 264.239,144.684 329.910,223.199 314.234 C 253.482 308.188,280.511 289.825,297.591 263.695 C 300.185 259.725,301.358 257.770,301.218 257.644 C 301.050 257.492,251.023 229.993,250.667 229.857 C 250.436 229.768,249.767 230.548,248.678 232.174 C 231.929 257.186,199.502 265.576,173.056 251.740 C 137.770 233.279,130.867 186.108,159.360 158.158 C 185.142 132.869,228.280 137.363,248.414 167.435 C 249.690 169.341,249.833 169.473,250.334 169.209 C 253.196 167.695,300.250 140.670,300.250 140.540 C 300.250 140.132,295.802 133.429,293.527 130.409 C 268.815 97.601,229.843 80.190,189.375 83.878 " stroke="none" fill="#fbfbfb" fill-rule="evenodd"></path><path id="path1" d="M196.000 25.177 C 192.821 25.730,189.600 27.456,147.125 51.373 C 145.338 52.380,143.425 53.453,142.875 53.757 C 142.325 54.062,141.031 54.787,140.000 55.369 C 138.969 55.951,137.619 56.708,137.000 57.053 C 134.082 58.678,95.988 80.011,93.125 81.623 C 91.338 82.630,89.425 83.703,88.875 84.007 C 88.325 84.312,87.031 85.037,86.000 85.619 C 84.969 86.201,83.619 86.958,83.000 87.302 C 66.629 96.409,50.022 105.815,48.836 106.654 C 45.685 108.881,43.089 112.666,42.136 116.425 C 41.664 118.284,41.532 279.035,42.000 281.502 C 42.136 282.217,42.174 282.921,42.085 283.065 C 41.996 283.209,42.029 283.262,42.159 283.181 C 42.289 283.101,42.587 283.562,42.822 284.205 C 43.450 285.929,44.082 286.655,44.696 286.362 C 44.968 286.231,56.988 279.392,71.408 271.162 L 97.625 256.199 95.364 251.662 C 71.699 204.180,83.590 145.938,124.000 111.399 C 176.240 66.748,255.432 76.456,295.103 132.375 C 296.840 134.822,299.824 139.378,300.386 140.439 C 300.428 140.519,353.544 110.265,353.841 109.992 C 354.616 109.279,350.716 106.182,345.125 103.071 C 342.650 101.694,340.119 100.284,339.500 99.939 C 337.850 99.017,330.079 94.680,328.625 93.869 C 327.938 93.485,323.550 91.035,318.875 88.424 C 314.200 85.812,309.925 83.425,309.375 83.118 C 308.825 82.811,306.462 81.493,304.125 80.188 C 301.788 78.884,299.313 77.502,298.625 77.119 C 297.938 76.735,293.550 74.285,288.875 71.674 C 284.200 69.062,279.925 66.675,279.375 66.368 C 278.825 66.061,276.462 64.743,274.125 63.438 C 271.788 62.134,269.369 60.784,268.750 60.438 C 268.131 60.093,265.712 58.743,263.375 57.438 C 261.038 56.134,258.619 54.784,258.000 54.439 C 257.381 54.094,246.137 47.820,233.012 40.496 C 208.537 26.839,206.993 26.007,206.113 26.002 C 205.831 26.001,205.493 25.903,205.363 25.785 C 204.760 25.240,198.119 24.808,196.000 25.177 M194.250 142.041 C 157.558 145.489,133.110 182.918,144.647 217.982 C 146.071 222.310,148.198 227.049,148.672 226.949 C 149.278 226.822,249.474 169.637,249.487 169.411 C 249.509 169.043,246.393 164.736,244.278 162.211 C 232.302 147.914,213.297 140.251,194.250 142.041 M117.250 282.375 C 118.413 283.544,119.420 284.500,119.489 284.500 C 119.558 284.500,118.663 283.544,117.500 282.375 C 116.337 281.206,115.330 280.250,115.261 280.250 C 115.192 280.250,116.087 281.206,117.250 282.375 M282.250 282.625 C 281.226 283.656,280.444 284.500,280.513 284.500 C 280.581 284.500,281.476 283.656,282.500 282.625 C 283.524 281.594,284.306 280.750,284.237 280.750 C 284.169 280.750,283.274 281.594,282.250 282.625 " stroke="none" fill="#5c6cc4" fill-rule="evenodd"></path><path id="path2" d="M353.863 109.970 C 353.732 110.091,341.813 116.914,327.375 125.131 C 312.938 133.348,300.900 140.273,300.625 140.519 C 299.942 141.130,250.245 169.522,249.650 169.641 C 249.300 169.711,149.066 226.718,148.534 227.149 C 147.886 227.676,154.895 237.151,158.872 241.125 C 185.028 267.258,228.060 262.855,248.676 231.938 C 249.570 230.597,250.338 229.500,250.384 229.500 C 250.492 229.500,301.298 257.464,301.431 257.598 C 301.698 257.865,296.179 266.292,292.971 270.515 C 242.807 336.552,142.491 330.779,99.525 259.383 C 98.534 257.737,97.686 256.353,97.640 256.307 C 97.595 256.261,85.618 263.036,71.025 271.362 C 56.432 279.688,44.391 286.500,44.267 286.500 C 43.937 286.500,43.056 284.989,42.492 283.456 C 42.126 282.461,42.041 282.346,42.155 283.000 C 42.535 285.184,44.208 288.281,46.243 290.569 C 47.808 292.330,49.602 293.501,57.625 298.000 C 65.733 302.546,71.470 305.766,82.125 311.750 C 93.169 317.952,98.692 321.052,106.625 325.499 C 110.612 327.735,116.125 330.829,118.875 332.374 C 121.625 333.920,127.138 337.014,131.125 339.249 C 135.113 341.485,140.653 344.593,143.438 346.157 C 146.222 347.721,150.778 350.278,153.563 351.839 C 156.347 353.401,161.887 356.511,165.875 358.750 C 169.863 360.989,175.375 364.084,178.125 365.628 C 195.533 375.397,194.260 374.860,200.000 374.860 C 205.152 374.860,205.907 374.596,214.328 369.864 C 217.929 367.840,223.125 364.921,225.875 363.378 C 228.625 361.834,234.137 358.739,238.125 356.500 C 249.169 350.298,254.692 347.198,262.625 342.751 C 266.613 340.515,272.125 337.421,274.875 335.876 C 277.625 334.330,283.137 331.236,287.125 329.001 C 291.113 326.765,296.653 323.657,299.438 322.093 C 302.222 320.529,306.778 317.972,309.563 316.411 C 312.347 314.849,317.887 311.740,321.875 309.500 C 325.863 307.261,331.262 304.230,333.875 302.764 C 352.301 292.423,352.303 292.422,354.573 289.619 C 355.982 287.878,357.296 285.283,357.929 282.992 C 358.641 280.411,358.621 119.545,357.908 116.875 C 357.155 114.057,356.216 112.272,354.257 109.938 C 354.171 109.834,353.993 109.849,353.863 109.970 M41.623 200.250 C 41.623 244.319,41.652 262.347,41.687 240.313 C 41.723 218.278,41.723 182.222,41.687 160.188 C 41.652 138.153,41.623 156.181,41.623 200.250 M41.689 281.375 C 41.755 281.719,41.851 282.000,41.904 282.000 C 41.957 282.000,42.000 281.719,42.000 281.375 C 42.000 281.031,41.903 280.750,41.785 280.750 C 41.666 280.750,41.623 281.031,41.689 281.375 " stroke="none" fill="#333f9f" fill-rule="evenodd"></path><path id="path3" d="M195.063 83.422 C 195.303 83.485,195.697 83.485,195.938 83.422 C 196.178 83.359,195.981 83.308,195.500 83.308 C 195.019 83.308,194.822 83.359,195.063 83.422 M204.063 83.422 C 204.303 83.485,204.697 83.485,204.938 83.422 C 205.178 83.359,204.981 83.308,204.500 83.308 C 204.019 83.308,203.822 83.359,204.063 83.422 M117.370 117.563 L 114.875 120.125 117.438 117.630 C 118.847 116.257,120.000 115.104,120.000 115.067 C 120.000 114.886,119.688 115.182,117.370 117.563 M282.375 117.500 C 283.745 118.875,284.922 120.000,284.991 120.000 C 285.059 120.000,283.995 118.875,282.625 117.500 C 281.255 116.125,280.078 115.000,280.009 115.000 C 279.941 115.000,281.005 116.125,282.375 117.500 M83.308 195.250 C 83.308 195.731,83.359 195.928,83.422 195.688 C 83.485 195.447,83.485 195.053,83.422 194.813 C 83.359 194.572,83.308 194.769,83.308 195.250 M83.308 204.750 C 83.308 205.231,83.359 205.428,83.422 205.188 C 83.485 204.947,83.485 204.553,83.422 204.313 C 83.359 204.072,83.308 204.269,83.308 204.750 M196.690 316.677 C 197.001 316.737,197.451 316.734,197.690 316.672 C 197.929 316.609,197.675 316.560,197.125 316.563 C 196.575 316.566,196.379 316.617,196.690 316.677 M202.440 316.677 C 202.751 316.737,203.201 316.734,203.440 316.672 C 203.679 316.609,203.425 316.560,202.875 316.563 C 202.325 316.566,202.129 316.617,202.440 316.677 " stroke="none" fill="#8b95ce" fill-rule="evenodd"></path><path id="path4" d="M198.063 83.436 C 199.128 83.483,200.872 83.483,201.938 83.436 C 203.003 83.389,202.131 83.351,200.000 83.351 C 197.869 83.351,196.997 83.389,198.063 83.436 M191.563 83.672 C 191.803 83.735,192.197 83.735,192.438 83.672 C 192.678 83.609,192.481 83.558,192.000 83.558 C 191.519 83.558,191.322 83.609,191.563 83.672 M207.563 83.672 C 207.803 83.735,208.197 83.735,208.438 83.672 C 208.678 83.609,208.481 83.558,208.000 83.558 C 207.519 83.558,207.322 83.609,207.563 83.672 M158.750 158.625 C 158.143 159.244,157.702 159.750,157.771 159.750 C 157.840 159.750,158.393 159.244,159.000 158.625 C 159.607 158.006,160.048 157.500,159.979 157.500 C 159.910 157.500,159.357 158.006,158.750 158.625 M241.125 158.750 C 241.662 159.300,242.158 159.750,242.226 159.750 C 242.295 159.750,241.912 159.300,241.375 158.750 C 240.838 158.200,240.342 157.750,240.274 157.750 C 240.205 157.750,240.588 158.200,241.125 158.750 M83.558 192.000 C 83.558 192.481,83.609 192.678,83.672 192.438 C 83.735 192.197,83.735 191.803,83.672 191.563 C 83.609 191.322,83.558 191.519,83.558 192.000 M83.352 200.000 C 83.352 202.269,83.390 203.197,83.436 202.063 C 83.482 200.928,83.482 199.072,83.436 197.938 C 83.390 196.803,83.352 197.731,83.352 200.000 M141.568 200.000 C 141.568 200.619,141.617 200.872,141.676 200.563 C 141.736 200.253,141.736 199.747,141.676 199.438 C 141.617 199.128,141.568 199.381,141.568 200.000 M83.558 208.000 C 83.558 208.481,83.609 208.678,83.672 208.438 C 83.735 208.197,83.735 207.803,83.672 207.563 C 83.609 207.322,83.558 207.519,83.558 208.000 M158.625 241.250 C 159.302 241.938,159.912 242.500,159.981 242.500 C 160.050 242.500,159.552 241.938,158.875 241.250 C 158.198 240.563,157.588 240.000,157.519 240.000 C 157.450 240.000,157.948 240.563,158.625 241.250 M241.250 241.125 C 240.643 241.744,240.202 242.250,240.271 242.250 C 240.340 242.250,240.893 241.744,241.500 241.125 C 242.107 240.506,242.548 240.000,242.479 240.000 C 242.410 240.000,241.857 240.506,241.250 241.125 M199.188 258.431 C 199.634 258.486,200.366 258.486,200.813 258.431 C 201.259 258.375,200.894 258.330,200.000 258.330 C 199.106 258.330,198.741 258.375,199.188 258.431 M198.938 316.683 C 199.522 316.736,200.478 316.736,201.063 316.683 C 201.647 316.630,201.169 316.587,200.000 316.587 C 198.831 316.587,198.353 316.630,198.938 316.683 " stroke="none" fill="#a9b0db" fill-rule="evenodd"></path></g></svg>