<svg id="svg" version="1.1" xmlns="http://www.w3.org/2000/svg" xmlns:xlink="http://www.w3.org/1999/xlink" width="400" height="400" viewBox="0, 0, 400,400"><g id="svgg"><path id="path0" d="M0.000 195.000 L 0.000 390.000 200.000 390.000 L 400.000 390.000 400.000 195.000 L 400.000 0.000 200.000 0.000 L 0.000 0.000 0.000 195.000 M383.333 195.000 L 383.333 373.333 200.000 373.333 L 16.667 373.333 16.667 195.000 L 16.667 16.667 200.000 16.667 L 383.333 16.667 383.333 195.000 M114.833 89.036 C 109.700 89.197,105.187 89.465,104.805 89.632 C 104.118 89.932,104.107 90.133,103.888 106.523 C 103.517 134.341,103.619 270.954,104.012 271.689 C 104.345 272.310,104.858 272.333,118.500 272.333 C 132.142 272.333,132.655 272.310,132.988 271.689 C 133.219 271.257,133.333 260.380,133.333 238.772 L 133.333 206.500 144.917 206.490 C 189.701 206.451,214.404 185.193,214.434 146.667 C 214.459 114.628,196.874 94.904,163.552 89.595 C 158.461 88.784,132.404 88.485,114.833 89.036 M157.426 115.495 C 175.626 118.238,184.664 128.693,184.664 147.000 C 184.664 171.591,169.156 182.272,136.583 180.115 L 133.333 179.899 133.333 147.630 L 133.333 115.360 136.083 115.248 C 144.253 114.914,154.348 115.031,157.426 115.495 M292.000 135.211 C 291.358 135.273,288.958 135.487,286.667 135.687 C 272.202 136.946,250.964 141.848,241.125 146.199 L 239.264 147.022 239.497 149.761 C 239.625 151.268,239.828 179.325,239.948 212.110 C 240.163 270.602,240.179 271.729,240.814 272.194 C 241.708 272.848,268.556 272.900,269.437 272.250 C 269.963 271.862,270.007 268.184,270.084 218.667 L 270.167 165.500 272.808 164.749 C 278.429 163.151,292.847 161.827,300.015 162.251 C 303.610 162.463,303.355 163.559,303.254 148.294 L 303.167 135.167 298.167 135.133 C 295.417 135.114,292.642 135.149,292.000 135.211 " stroke="none" fill="#eb73fb" fill-rule="evenodd"></path><path id="path1" d="M16.667 195.000 L 16.667 373.333 200.000 373.333 L 383.333 373.333 383.333 195.000 L 383.333 16.667 200.000 16.667 L 16.667 16.667 16.667 195.000 M161.333 89.148 C 195.687 93.630,214.667 113.931,214.667 146.197 C 214.667 186.115,187.631 208.288,140.750 206.818 L 133.333 206.585 133.333 239.107 L 133.333 271.629 132.592 272.148 C 131.952 272.596,130.045 272.667,118.500 272.667 C 106.955 272.667,105.048 272.596,104.408 272.148 L 103.667 271.629 103.667 181.126 C 103.667 122.370,103.782 90.408,103.995 90.010 C 104.807 88.493,150.991 87.799,161.333 89.148 M139.000 115.326 C 136.342 115.467,133.979 115.602,133.750 115.625 C 133.420 115.658,133.333 122.307,133.333 147.646 L 133.333 179.626 134.845 179.852 C 141.282 180.818,158.548 179.516,164.313 177.630 C 178.667 172.936,186.053 160.152,184.369 142.915 C 182.320 121.924,168.854 113.736,139.000 115.326 M302.926 135.186 L 303.667 135.704 303.667 148.455 C 303.667 158.152,303.567 161.332,303.250 161.733 C 302.899 162.177,301.595 162.290,295.000 162.447 C 284.544 162.696,274.889 163.885,271.250 165.373 L 270.333 165.748 270.333 218.466 C 270.333 265.641,270.279 271.263,269.814 271.926 L 269.296 272.667 255.022 272.667 C 243.739 272.667,240.673 272.576,240.390 272.235 C 240.138 271.931,239.993 254.430,239.905 213.485 C 239.812 170.704,239.670 154.152,239.371 151.360 C 238.994 147.821,239.007 147.512,239.566 146.966 C 241.345 145.225,257.947 140.187,269.000 138.034 C 282.336 135.436,301.041 133.865,302.926 135.186 " stroke="none" fill="#2c0434" fill-rule="evenodd"></path><path id="path2" d="M121.417 88.905 C 121.921 88.982,122.746 88.982,123.250 88.905 C 123.754 88.829,123.342 88.767,122.333 88.767 C 121.325 88.767,120.912 88.829,121.417 88.905 M110.254 89.236 C 110.669 89.315,111.269 89.312,111.587 89.229 C 111.906 89.146,111.567 89.080,110.833 89.084 C 110.100 89.088,109.839 89.156,110.254 89.236 M103.815 101.667 C 103.815 107.442,103.861 109.804,103.916 106.917 C 103.972 104.029,103.972 99.304,103.916 96.417 C 103.861 93.529,103.815 95.892,103.815 101.667 M139.083 115.230 C 139.404 115.314,139.929 115.314,140.250 115.230 C 140.571 115.146,140.308 115.077,139.667 115.077 C 139.025 115.077,138.762 115.146,139.083 115.230 M303.484 148.667 C 303.484 155.358,303.528 158.096,303.583 154.750 C 303.637 151.404,303.637 145.929,303.583 142.583 C 303.528 139.238,303.484 141.975,303.484 148.667 M296.250 162.235 C 296.662 162.315,297.337 162.315,297.750 162.235 C 298.162 162.156,297.825 162.091,297.000 162.091 C 296.175 162.091,295.837 162.156,296.250 162.235 M270.154 165.750 C 270.067 165.979,270.034 189.717,270.081 218.500 L 270.167 270.833 270.333 218.083 C 270.425 189.071,270.458 165.333,270.406 165.333 C 270.355 165.333,270.241 165.521,270.154 165.750 M176.151 170.750 L 174.833 172.167 176.250 170.849 C 177.567 169.624,177.820 169.333,177.568 169.333 C 177.513 169.333,176.876 169.971,176.151 170.750 M140.750 180.249 C 142.537 180.308,145.462 180.308,147.250 180.249 C 149.037 180.189,147.575 180.140,144.000 180.140 C 140.425 180.140,138.962 180.189,140.750 180.249 M134.256 206.575 C 134.855 206.649,135.755 206.648,136.256 206.572 C 136.757 206.495,136.267 206.435,135.167 206.437 C 134.067 206.438,133.657 206.501,134.256 206.575 M111.895 272.583 C 115.412 272.637,121.262 272.637,124.895 272.583 C 128.528 272.529,125.650 272.485,118.500 272.485 C 111.350 272.485,108.378 272.529,111.895 272.583 " stroke="none" fill="#8c3c9c" fill-rule="evenodd"></path><path id="path3" d="M145.427 88.579 C 146.303 88.648,147.653 88.647,148.427 88.577 C 149.200 88.507,148.483 88.451,146.833 88.452 C 145.183 88.453,144.550 88.510,145.427 88.579 M145.421 206.906 C 145.928 206.982,146.678 206.980,147.088 206.901 C 147.498 206.822,147.083 206.760,146.167 206.762 C 145.250 206.765,144.915 206.829,145.421 206.906 " stroke="none" fill="#843a94" fill-rule="evenodd"></path><path id="path4" d="M136.417 88.581 C 137.837 88.644,140.162 88.644,141.583 88.581 C 143.004 88.519,141.842 88.467,139.000 88.467 C 136.158 88.467,134.996 88.519,136.417 88.581 M150.417 88.572 C 150.921 88.648,151.746 88.648,152.250 88.572 C 152.754 88.496,152.342 88.433,151.333 88.433 C 150.325 88.433,149.912 88.496,150.417 88.572 M117.583 88.902 C 117.996 88.981,118.671 88.981,119.083 88.902 C 119.496 88.822,119.158 88.757,118.333 88.757 C 117.508 88.757,117.171 88.822,117.583 88.902 M107.750 89.230 C 108.071 89.314,108.596 89.314,108.917 89.230 C 109.237 89.146,108.975 89.077,108.333 89.077 C 107.692 89.077,107.429 89.146,107.750 89.230 M199.333 105.833 C 199.955 106.475,200.539 107.000,200.631 107.000 C 200.722 107.000,200.289 106.475,199.667 105.833 C 199.045 105.192,198.461 104.667,198.369 104.667 C 198.278 104.667,198.711 105.192,199.333 105.833 M141.921 115.236 C 142.335 115.315,142.935 115.312,143.254 115.229 C 143.573 115.146,143.233 115.080,142.500 115.084 C 141.767 115.088,141.506 115.156,141.921 115.236 M297.250 134.908 C 297.846 134.982,298.821 134.982,299.417 134.908 C 300.012 134.834,299.525 134.773,298.333 134.773 C 297.142 134.773,296.654 134.834,297.250 134.908 M239.744 159.667 C 239.744 160.308,239.813 160.571,239.896 160.250 C 239.980 159.929,239.980 159.404,239.896 159.083 C 239.813 158.762,239.744 159.025,239.744 159.667 M141.923 206.908 C 142.522 206.982,143.422 206.981,143.923 206.905 C 144.424 206.829,143.933 206.768,142.833 206.770 C 141.733 206.772,141.324 206.834,141.923 206.908 M148.421 206.906 C 148.928 206.982,149.678 206.980,150.088 206.901 C 150.498 206.822,150.083 206.760,149.167 206.762 C 148.250 206.765,147.915 206.829,148.421 206.906 " stroke="none" fill="#783488" fill-rule="evenodd"></path></g></svg>